<?xml version="1.0" encoding="UTF-8"?>
<svg id="_Слой_1" data-name="Слой 1" xmlns="http://www.w3.org/2000/svg" viewBox="0 0 1080 1080">
  <defs>
    <style>
      .cls-1 {
        fill: #050002;
      }
    </style>
  </defs>
  <g>
    <path class="cls-1" d="m474.31,779.9l-7.07-9.84h1.32l6.18,8.7h.29l6.18-8.7h1.32l-7.07,9.84v6.72h-1.14v-6.72Z"/>
    <path class="cls-1" d="m495.08,770.06h1.77l7.58,16.56h-1.23l-2.49-5.46-.06-.14-4.61-10.1h-.2l-4.61,10.15-.06.12-2.46,5.44h-1.23l7.58-16.56Zm-3.83,10.45h9.44l.4.9h-10.24l.4-.9Z"/>
    <path class="cls-1" d="m516.53,786.21c-1.09-.4-2.02-.97-2.79-1.69-.77-.73-1.37-1.59-1.79-2.6-.42-1.01-.63-2.14-.63-3.38v-.4c0-1.23.21-2.35.64-3.37.43-1.02,1.03-1.89,1.8-2.61.77-.73,1.7-1.29,2.79-1.69,1.09-.4,2.28-.6,3.58-.6h.09c.78,0,1.54.08,2.27.24.73.16,1.42.38,2.05.67s1.2.65,1.7,1.06c.5.42.91.88,1.22,1.38l-.97.5c-.59-.91-1.43-1.63-2.52-2.15s-2.34-.78-3.75-.78h-.09c-1.14,0-2.18.17-3.12.52-.94.35-1.74.84-2.42,1.48-.68.64-1.2,1.41-1.56,2.31-.36.9-.54,1.9-.54,3v.52c0,1.09.18,2.08.54,2.98.36.9.88,1.67,1.56,2.31.68.64,1.49,1.13,2.43,1.48.94.35,1.99.52,3.13.52h.09c.69,0,1.36-.07,2.02-.2.66-.13,1.27-.33,1.83-.59.56-.26,1.07-.57,1.53-.93.46-.36.83-.76,1.12-1.18l.91.5c-.34.5-.77.96-1.27,1.37-.51.41-1.08.76-1.73,1.05-.65.29-1.35.52-2.1.67-.75.16-1.52.24-2.3.24h-.11c-1.32,0-2.52-.2-3.6-.6Z"/>
    <path class="cls-1" d="m537.47,770.06h1.14v7.62h11.39v-7.62h1.14v16.56h-1.14v-8.04h-11.39v8.04h-1.14v-16.56Z"/>
    <path class="cls-1" d="m566.54,770.96h-5.84v-.9h12.82v.9h-5.84v15.66h-1.14v-15.66Z"/>
    <path class="cls-1" d="m583.07,770.06h1.14v16.56h-1.14v-16.56Z"/>
    <path class="cls-1" d="m596.03,770.06h1.63l10.93,15.19h.2v-15.19h1.14v16.56h-1.57l-10.96-15.21h-.23v15.21h-1.14v-16.56Z"/>
    <path class="cls-1" d="m625.38,786.21c-1.09-.4-2.01-.97-2.77-1.69-.76-.73-1.35-1.59-1.77-2.6-.42-1.01-.63-2.14-.63-3.38v-.4c0-1.23.21-2.35.64-3.37s1.03-1.89,1.8-2.61c.77-.73,1.7-1.29,2.79-1.69,1.09-.4,2.28-.6,3.58-.6h.09c.78,0,1.54.08,2.27.24.73.16,1.42.38,2.05.67s1.2.65,1.7,1.06c.5.42.91.88,1.22,1.38l-.97.5c-.59-.91-1.43-1.63-2.52-2.15s-2.34-.78-3.75-.78h-.09c-1.14,0-2.18.17-3.12.52-.94.35-1.74.84-2.42,1.48-.68.64-1.2,1.41-1.56,2.31-.36.9-.54,1.9-.54,3v.52c0,1.09.19,2.08.56,2.98s.89,1.67,1.56,2.31c.67.64,1.47,1.13,2.42,1.48.94.35,1.99.52,3.13.52h.09c1.01,0,1.94-.13,2.77-.38s1.56-.62,2.16-1.09c.6-.47,1.06-1.04,1.39-1.7.32-.66.49-1.4.49-2.2v-1.21h-6.35v-.9h7.5v8.21h-.86c-.06-.36-.11-.82-.16-1.38-.05-.56-.08-1.13-.1-1.72-.29.5-.66.96-1.12,1.36-.46.4-.98.74-1.57,1.03-.59.28-1.24.5-1.96.66-.72.16-1.47.24-2.27.24h-.06c-1.32,0-2.52-.2-3.6-.6Z"/>
  </g>
  <path class="cls-1" d="m666.89,390.32c-.07-2.25-.24-5.5-.31-7.77-.02-.19-.04-.39-.05-.58.34-5.16.35-10.33,0-15.49.36-5.42.35-10.86-.05-16.28.35-5.47.35-10.99-.03-16.48.59-8.42.27-16.9-.96-25.22,0-.3.02-.6.02-.9.08-3.44-.1-6.88-.36-10.32.21-2.91.33-5.83.36-8.74l-.07-6.41h-.5c-.29,3.54-.72,7.08-1.46,10.54-.16.71-.33,1.5-.51,2.33-.02-.11-.04-.23-.06-.34-.58,2.35-1.74,7.05-2.59,10.51-2.85,9.32-6.61,18.48-11.34,26.97-.05.09-.09.19-.14.28-.83,1.48-1.64,2.97-2.41,4.5-4.19,8.62-8.15,18.38-11.95,28.31-.28.46-.42.88-.49,1.27-.46,1.21-.92,2.42-1.37,3.63-1.59,4.09-3.24,8.35-4.93,12.75-1.86,4.83-3.78,9.82-5.76,14.9-3.76,9.66-6.9,17.49-9.87,24.64-3.39,8.16-6.54,15.39-9.65,22.11-3.85,8.33-7.46,15.52-11.04,22.01-4.1,7.44-8.16,13.89-12.06,19.18-4.68,6.32-9.25,11.12-13.68,14.4-4.12,2.83-8.61,4.72-13.47,5.01-8.14-.35-15-5.49-20.56-11.16-2.25-2.38-4.54-5.13-6.85-8.26-3.9-5.28-7.96-11.73-12.06-19.17-3.59-6.49-7.2-13.69-11.04-22.01-3.1-6.72-6.26-13.95-9.65-22.11-3-7.22-6.14-15.05-9.87-24.63-.53-1.37-1.06-2.74-1.59-4.09-2.33-6.16-9.15-24.24-9.15-24.24-4.15-10.94-8.26-22.01-13.49-32.53-.77-1.54-1.59-3.02-2.41-4.5-.05-.09-.09-.19-.14-.28-4.31-7.58-7.61-15.87-10.51-24.1-.23-.81-.48-1.65-.73-2.5-.49-1.83-.95-3.65-1.36-5.48,0,0-1.33-5.4-1.33-5.4-.02.11-.04.22-.06.33-.19-.9-.37-1.72-.51-2.32-.74-3.47-1.17-7-1.46-10.54h-.5s-.07,6.41-.07,6.41c.03,2.91.15,5.83.36,8.74-.26,3.44-.44,6.88-.36,10.32,0,.29.02.59.02.88-1.25,8.28-1.57,16.68-.99,25.01-.41,5.69-.4,11.4.03,17.06-.38,5.27-.41,10.53-.08,15.76-.35,5.24-.35,10.49,0,15.71-.02.17-.03.35-.05.52-.08,2.25-.23,5.53-.31,7.77.04,2.1.24,7.23.31,9.33.09.94.45,3.69.54,4.64,3.62,33,22.74,63.67,50.19,81.78.81.52,5.88,3.59,6.53,4.01.94.46,3.08,1.63,4.08,2.11,1.97,1.11,4.03,2.03,6.11,2.91.74,1.87,1.48,3.7,2.22,5.48,15.94,38.61,30.11,56.59,44.6,56.59s28.67-17.98,44.6-56.58c.72-1.73,1.44-3.52,2.17-5.35,2.19-.92,4.36-1.87,6.43-3.04,1.1-.59,2.93-1.49,4.08-2.11l1.31-.8s5.23-3.21,5.23-3.21c20.54-13.63,36.52-34.09,44.65-57.58,0,0,1.05-2.92,1.05-2.92.76-2.91,1.75-6.09,2.43-9.01,1.06-5.05,1.95-10.21,2.43-15.36l.18-1.55s.06-1.56.06-1.56c.01-1.07.28-6.84.26-7.77Zm-1.71-103l.05,1.22c0,2.23-.08,4.47-.22,6.69-.08-1.01-.17-2.03-.25-3.04.17-1.62.31-3.25.42-4.87Zm-2.97,19.94c.11-.4.23-.79.34-1.19.19,1.2.37,2.39.52,3.59-.12.59-.24,1.18-.37,1.77-.24-.88-.52-1.92-.8-2.96.1-.41.21-.81.31-1.22Zm-1.88,6.67c.1-.3.18-.6.27-.9.31,1.19.61,2.39.85,3.49-.36,1.34-.74,2.67-1.15,3.99-.37-1.06-.74-2.11-1.12-3.17.41-1.14.8-2.28,1.16-3.42Zm-49.13,147.16c.65-1.91,1.3-3.87,1.96-5.86,4.25-2.62,8.34-5.52,12.26-8.65,10.48-8.61,19.49-19.11,26.24-30.95,4.92-8.34,8.63-17.33,11.16-26.65-4.69,34.72-24.96,66.21-55.98,84.77,1.43-4.05,2.89-8.27,4.37-12.65Zm2.27-6.79c1.52-4.61,3.1-9.48,4.77-14.74.65-2.06,1.31-4.16,1.99-6.3,8.3-5.95,15.85-13.04,22.23-21.14,9.2-11.54,16.04-24.96,20.09-39.19.06.37.12.65.14.77.02.17.04.35.07.52-4.48,31.7-21.88,60.96-49.28,80.08Zm18.65-59.73c.66-2.16,1.22-4.22,1.73-6.24,8.77-9.2,16.04-19.9,21.29-31.51.77-1.7,1.49-3.42,2.17-5.16.67,1.89,1.28,3.79,1.84,5.72-5.79,19.84-16.66,38.03-31.73,52.58.49-1.61.98-3.22,1.47-4.81,1.1-3.59,2.17-7.12,3.23-10.58Zm26.58-46.66c.48-1.38.93-2.78,1.36-4.18.19.77.38,1.54.55,2.31.24.98.44,1.97.65,2.95-.25,1.18-.53,2.36-.82,3.53-.54-1.56-1.12-3.09-1.73-4.62Zm-.59-1.43c-1.05-2.49-2.19-4.95-3.39-7.37.81-1.73,1.56-3.47,2.27-5.24,1,2.72,1.89,5.47,2.65,8.27-.48,1.46-.99,2.9-1.53,4.34Zm-1.4,3.57c-5.21,12.66-12.65,24.39-21.91,34.41.34-1.46.68-2.9,1-4.32.88-3.89,1.73-7.6,2.82-11.23.18-.36.27-.71.32-1.02.09-.3.19-.59.29-.88l1.96-5.93c3.55-4.59,6.87-9.39,9.63-14.42.88-1.54,1.71-3.1,2.5-4.68,1.23,2.65,2.37,5.33,3.4,8.06Zm-31.81,68.1c.7-2.29,1.4-4.57,2.09-6.83,2.58-2.15,5.08-4.42,7.47-6.8,11.36-11.43,20.18-25.34,25.72-40.57.13-.36.25-.73.37-1.09.22.86.48,1.86.68,2.67-5.57,25.82-19.7,49.41-40.67,66.65,1.39-4.44,2.83-9.08,4.35-14.04Zm37.54-59.08c-.1-.38-.2-.77-.31-1.14.16-.53.31-1.07.46-1.61.04.3.08.59.12.89-.09.62-.17,1.24-.27,1.86Zm.01-16.55c-.24-.86-.47-1.73-.73-2.58-.1-.34-.21-.67-.31-1,.19-.73.36-1.47.54-2.2.27,1.46.51,2.92.72,4.38-.07.47-.15.94-.22,1.4Zm-1.45-4.9c-.8-2.43-1.73-4.82-2.71-7.19.46-1.27.9-2.56,1.32-3.85.8,2.86,1.48,5.74,2.05,8.62-.21.81-.43,1.62-.66,2.42Zm-3.16-16.8c.4,1.21.79,2.42,1.15,3.63-.48,1.37-.97,2.74-1.5,4.09-.49-1.15-.99-2.29-1.49-3.43.65-1.42,1.26-2.85,1.84-4.29Zm-3.2,7.15c.53,1.26,1.04,2.52,1.54,3.79-.77,1.83-1.59,3.63-2.45,5.41-.65-1.26-1.31-2.52-1.99-3.77,1.02-1.76,1.98-3.58,2.9-5.44Zm-4.29,8.06c.69,1.3,1.35,2.61,2,3.93-1,1.95-2.04,3.87-3.14,5.76-1.83,3.1-3.82,6.09-5.94,8.99l.06-.18-1.32,1.58c2.44-6.85,5.03-13.67,8.35-20.09Zm-98.19,169.24s0,.04,0,.07h0s0-.04,0-.07Zm-105.13-153.61c.68,1.74,1.4,3.46,2.17,5.16,5.08,11.32,12.16,21.72,20.62,30.78.72,2.34,1.44,4.67,2.14,6.97,1.04,3.4,2.1,6.87,3.18,10.4.46,1.51.93,3.05,1.4,4.58-9.49-9.31-17.49-20.13-23.52-32.03-3.22-6.44-5.83-13.19-7.83-20.13.55-1.93,1.17-3.84,1.84-5.73Zm-3.14.89c-.3-1.24-.58-2.49-.84-3.74.37-1.71.78-3.41,1.22-5.11.43,1.41.88,2.81,1.37,4.21-.62,1.53-1.2,3.08-1.74,4.65Zm16.02,4.18l3.05,9.24c1.8,5.44,3.67,11.36,5.53,17.34-8.78-9.76-15.86-21.08-20.88-33.26,1.02-2.73,2.16-5.42,3.4-8.06.8,1.58,1.62,3.14,2.5,4.68,1.91,3.46,4.07,6.81,6.39,10.06Zm-13.69-10.25c-.53-1.43-1.05-2.87-1.53-4.33.62-2.24,1.29-4.48,2.05-6.7.18-.54.39-1.07.58-1.61.71,1.78,1.47,3.53,2.28,5.27-1.21,2.42-2.34,4.88-3.39,7.37Zm-2.88-8.76c-.24-.83-.46-1.67-.68-2.5.52-2.81,1.11-5.62,1.88-8.21.04-.17.1-.33.14-.5.42,1.31.87,2.61,1.34,3.91-.98,2.41-1.87,4.85-2.68,7.3Zm-.42,1.28c-.37,1.16-.71,2.32-1.04,3.49-.08-.52-.16-1.05-.24-1.57.24-1.35.48-2.74.73-4.14.18.74.36,1.49.55,2.22Zm-1.2,17.17c.16.57.31,1.14.48,1.7-.1.38-.21.77-.31,1.15-.11-.68-.2-1.37-.3-2.05.04-.27.09-.54.12-.8Zm51.13,104.91c1.48,4.38,2.89,8.48,4.27,12.38-4.53-2.76-8.9-5.75-13.04-9.05-23.7-18.95-38.49-46.18-42.5-75.21,4.25,15.49,11.84,30.18,22.83,43.12,7.56,8.91,16.52,16.58,26.42,22.7.68,2.06,1.36,4.08,2.02,6.06Zm-26.85-30.1c-13.2-16.3-21.5-36.23-24.4-56.96.06-.39.12-.78.19-1.19,3.98,14.18,10.72,27.6,20.09,39.29,6.29,7.98,13.72,14.99,21.89,20.89.7,2.24,1.39,4.42,2.06,6.55,1.62,5.12,3.16,9.88,4.66,14.43-9.19-6.51-17.52-14.2-24.49-23.01Zm-2.49-20.13c-10.02-13.38-16.91-28.98-20.41-45.32.2-.8.47-1.84.69-2.7,3.64,10.55,8.86,20.55,15.6,29.52,5.13,6.89,11.03,13.19,17.59,18.69.72,2.35,1.44,4.72,2.18,7.11,1.48,4.84,2.88,9.36,4.23,13.66-7.42-6.18-14.17-13.15-19.87-20.96Zm85.11,94.15c-.11-.02-.21-.04-.32-.07.11.02.21.04.32.07Zm-1.7-.42c-.07-.02-.13-.04-.2-.06.07.02.13.04.2.06Zm-84.4-147.86c-2.67-3.52-5.16-7.17-7.41-10.98-1.1-1.89-2.14-3.81-3.14-5.76.64-1.32,1.31-2.63,2-3.93,3.41,6.6,6.05,13.62,8.55,20.67Zm-9.94-23.3c-.68,1.25-1.34,2.51-1.99,3.77-.86-1.79-1.69-3.6-2.46-5.43.5-1.25,1.03-2.5,1.56-3.75.92,1.85,1.88,3.66,2.89,5.41Zm-6.1-12.56c.58,1.43,1.19,2.86,1.83,4.26-.52,1.12-1.03,2.24-1.51,3.37-.53-1.36-1.02-2.72-1.5-4.1.37-1.19.77-2.36,1.18-3.54Zm-2.77-7.87c.1.31.18.63.28.94.34,1.09.72,2.18,1.1,3.27-.39,1.05-.75,2.11-1.11,3.17-.39-1.25-.75-2.51-1.09-3.78.25-1.2.52-2.4.82-3.6Zm-2.32-4.6c.11-.79.24-1.58.37-2.36.11.41.23.82.35,1.24.1.41.21.81.31,1.22-.28,1.05-.56,2.08-.8,2.96-.13-.59-.25-1.19-.37-1.78.05-.42.09-.85.14-1.27Zm-2.3-19.85s.04-.84.05-1.22c.11,1.62.25,3.25.42,4.87-.08,1.01-.17,2.03-.25,3.04-.14-2.23-.23-4.46-.22-6.69Zm.01,18.2c.02-2.08.13-4.18.31-6.28.09.98.19,1.96.31,2.94-.22,1.13-.43,2.25-.62,3.34Zm.88-4.68c-.15-1.16-.28-2.32-.4-3.48.11-1.05.22-2.11.35-3.15.17,1.32.36,2.63.58,3.94-.18.89-.35,1.79-.53,2.69Zm1.02,9.8c.07.36.14.73.21,1.09-.16.63-.32,1.25-.47,1.88.07-.99.15-1.98.25-2.97Zm-.24,19.77c.04-.59.1-1.19.15-1.78.04.21.08.43.12.64-.09.38-.19.76-.28,1.14Zm1.7-12.94c.29,1.18.59,2.35.92,3.51-.76,2.38-1.46,4.78-2.07,7.18-.08-.39-.16-.77-.24-1.16.33-3.19.79-6.38,1.39-9.53Zm39.54,160.73c-2.17-2.01-4.64-4.05-6.73-6.12-1.49-1.62-4.89-4.9-6.22-6.63-9.85-11.38-17.79-24.76-22.45-39.15,0,0-.99-2.86-.99-2.86-.73-2.84-1.67-5.94-2.32-8.78-.73-3.97-1.64-7.91-1.95-11.95-.02-.19-.05-.45-.09-.74,4.51,17.26,13.05,33.54,25.49,47.32,8.82,9.67,19.22,17.81,30.72,23.91.69,1.95,1.38,3.85,2.06,5.72,1.8,4.95,3.6,9.69,5.38,14.18-8.15-4.12-15.82-9.08-22.89-14.89Zm70.02,72.74c-11.88,0-25.33-18-39.98-53.5-2.56-6.19-5.19-13-7.83-20.25-2.13-5.84-4.3-12.03-6.62-18.93-2.23-6.61-4.52-13.62-7-21.43-2.08-6.56-4.26-13.55-6.65-21.37-.31-1.02-.63-2.04-.94-3.06,1.52,3.78,2.96,7.31,4.37,10.7,3.41,8.22,6.6,15.51,9.73,22.29,3.89,8.43,7.56,15.74,11.2,22.33,4.21,7.63,8.39,14.27,12.42,19.73,10.58,14.31,20.64,21.4,30.73,21.66.38.01.79.01,1.13,0,10.1-.26,20.15-7.34,30.75-21.65,4.04-5.47,8.22-12.11,12.42-19.73,3.64-6.59,7.31-13.89,11.2-22.33,3.13-6.78,6.31-14.07,9.73-22.29,1.41-3.38,2.85-6.92,4.38-10.73-.31,1.02-.63,2.05-.94,3.08-2.38,7.75-4.55,14.74-6.65,21.36-2.5,7.88-4.79,14.89-7,21.44-2.26,6.7-4.48,13.07-6.62,18.92-2.65,7.28-5.29,14.09-7.83,20.25-14.65,35.49-28.1,53.49-39.98,53.49Zm110.95-148.24c-.32,4.04-1.23,7.98-1.95,11.95-.65,2.84-1.6,5.94-2.32,8.78,0,0-.99,2.86-.99,2.86-5.61,17.29-15.85,33.05-28.67,45.78-8.81,8.62-18.97,15.69-29.95,21.2,1.79-4.53,3.62-9.33,5.45-14.36.66-1.81,1.33-3.68,2-5.57,5.03-2.67,9.88-5.7,14.52-9.04,17.98-13.4,31.79-32.2,39.37-53.43.97-2.76,1.82-5.56,2.57-8.39,0,.07-.02.16-.02.22Zm.06-74.64c-.61-2.35-1.34-4.67-2.12-6.97.33-1.19.65-2.4.94-3.6.6,3.19,1.05,6.38,1.39,9.57-.06.33-.14.67-.21,1Zm.27,1.09c.03-.18.07-.35.1-.53.04.47.08.94.11,1.4-.07-.29-.14-.58-.22-.88Zm-.2-17.41c.08-.39.16-.78.23-1.18.12,1.1.21,2.21.29,3.31-.17-.71-.33-1.43-.52-2.14Zm.7-13.57c.22-1.32.41-2.64.58-3.96.13,1.05.25,2.1.35,3.15-.11,1.17-.25,2.34-.4,3.5-.18-.9-.36-1.8-.53-2.69Zm.79,4.03c.12-.98.22-1.97.31-2.96.18,2.1.29,4.21.31,6.29-.19-1.08-.4-2.2-.62-3.33Z"/>
  <g>
    <path d="m410.73,711.1l-35.13-49.87h12.41l33.17,47.49,33.31-47.49h3l-35,49.98v33.32h-11.75v-33.44Z"/>
    <path d="m502.19,661.23c11.41,0,20.29,2.1,26.64,6.31,6.36,4.21,9.53,10.04,9.53,17.49s-3.18,13.29-9.53,17.49c-6.36,4.21-15.24,6.31-26.64,6.31h-15.15v35.7h-11.75v-83.31h26.91Zm17.89,39.57c4.35-3.77,6.53-9.02,6.53-15.77s-2.18-12-6.53-15.77c-4.36-3.77-10.41-5.65-18.16-5.65h-14.89v42.84h14.89c7.75,0,13.8-1.88,18.16-5.65Z"/>
    <path d="m579.21,738.95c-7.18-3.73-12.82-8.9-16.91-15.53-4.09-6.62-6.14-14.06-6.14-22.31s2.04-15.79,6.14-22.37c4.09-6.59,9.73-11.74,16.91-15.47,7.18-3.73,15.26-5.59,24.23-5.59s17.17,1.87,24.36,5.59c7.18,3.73,12.8,8.89,16.85,15.47,4.05,6.59,6.07,14.04,6.07,22.37s-2.02,15.69-6.07,22.31c-4.05,6.63-9.67,11.8-16.85,15.53-7.18,3.73-15.3,5.59-24.36,5.59s-17.04-1.86-24.23-5.59Zm42.64-1.67c5.31-3.33,9.45-8.11,12.41-14.34,2.96-6.23,4.44-13.51,4.44-21.84s-1.48-15.61-4.44-21.84c-2.96-6.23-7.1-11.01-12.41-14.34-5.31-3.33-11.45-5-18.42-5s-13.11,1.67-18.42,5c-5.31,3.33-9.45,8.11-12.41,14.34-2.96,6.23-4.44,13.51-4.44,21.84s1.48,15.61,4.44,21.84c2.96,6.23,7.1,11.01,12.41,14.34,5.31,3.33,11.45,5,18.42,5s13.1-1.67,18.42-5Z"/>
    <path d="m682.88,740.91c-4.53-2.42-8.06-5.87-10.58-10.35-2.53-4.48-3.79-9.78-3.79-15.89v-4.05h2.61v4.05c0,5.16.98,9.68,2.94,13.57,1.96,3.89,4.72,6.9,8.29,9.05,3.57,2.14,7.71,3.21,12.41,3.21,6.79,0,12.19-2.24,16.2-6.72,4-4.48,6.01-10.45,6.01-17.91v-56.41h11.75v54.39c0,9.6-2.7,17.12-8.1,22.55-5.4,5.44-12.71,8.15-21.94,8.15-6.01,0-11.28-1.21-15.8-3.63Z"/>
  </g>
</svg>